<mxfile host="app.diagrams.net" agent="Mozilla/5.0 (Windows NT 10.0; Win64; x64) AppleWebKit/537.36 (KHTML, like Gecko) Chrome/131.0.0.0 Safari/537.36" version="26.0.6">
  <diagram id="C5RBs43oDa-KdzZeNtuy" name="Page-1">
    <mxGraphModel dx="1188" dy="2122" grid="1" gridSize="10" guides="1" tooltips="1" connect="1" arrows="1" fold="1" page="1" pageScale="1" pageWidth="827" pageHeight="1169" math="0" shadow="0">
      <root>
        <mxCell id="WIyWlLk6GJQsqaUBKTNV-0" />
        <mxCell id="WIyWlLk6GJQsqaUBKTNV-1" parent="WIyWlLk6GJQsqaUBKTNV-0" />
        <mxCell id="vfP2nqWJJjQrkhzP8G_h-13" value="" style="group" vertex="1" connectable="0" parent="WIyWlLk6GJQsqaUBKTNV-1">
          <mxGeometry x="300" y="-130" width="160" height="130" as="geometry" />
        </mxCell>
        <mxCell id="vfP2nqWJJjQrkhzP8G_h-0" value="Command/Requests" style="strokeWidth=2;html=1;shape=mxgraph.flowchart.start_1;whiteSpace=wrap;" vertex="1" parent="vfP2nqWJJjQrkhzP8G_h-13">
          <mxGeometry width="160" height="130" as="geometry" />
        </mxCell>
        <mxCell id="vfP2nqWJJjQrkhzP8G_h-14" value="" style="group" vertex="1" connectable="0" parent="WIyWlLk6GJQsqaUBKTNV-1">
          <mxGeometry x="290" y="240" width="180" height="120" as="geometry" />
        </mxCell>
        <mxCell id="vfP2nqWJJjQrkhzP8G_h-5" value="LLama 2/ Mistral 7B" style="rounded=0;whiteSpace=wrap;html=1;" vertex="1" parent="vfP2nqWJJjQrkhzP8G_h-14">
          <mxGeometry x="10" width="180" height="120" as="geometry" />
        </mxCell>
        <mxCell id="vfP2nqWJJjQrkhzP8G_h-4" value="AI Processing" style="text;html=1;align=center;verticalAlign=middle;resizable=0;points=[];autosize=1;strokeColor=none;fillColor=none;fontSize=16;" vertex="1" parent="vfP2nqWJJjQrkhzP8G_h-14">
          <mxGeometry x="40" width="120" height="30" as="geometry" />
        </mxCell>
        <mxCell id="vfP2nqWJJjQrkhzP8G_h-15" value="" style="group" vertex="1" connectable="0" parent="WIyWlLk6GJQsqaUBKTNV-1">
          <mxGeometry x="320" y="570" width="170" height="160" as="geometry" />
        </mxCell>
        <mxCell id="vfP2nqWJJjQrkhzP8G_h-7" value="Google Calendar/ Notion/&lt;div&gt;Email/ Etc.&lt;/div&gt;" style="whiteSpace=wrap;html=1;aspect=fixed;" vertex="1" parent="vfP2nqWJJjQrkhzP8G_h-15">
          <mxGeometry x="-20" width="178.89" height="178.89" as="geometry" />
        </mxCell>
        <mxCell id="vfP2nqWJJjQrkhzP8G_h-8" value="Task&lt;div&gt;Execution&lt;/div&gt;" style="text;html=1;align=center;verticalAlign=middle;resizable=0;points=[];autosize=1;strokeColor=none;fillColor=none;fontSize=16;" vertex="1" parent="vfP2nqWJJjQrkhzP8G_h-15">
          <mxGeometry x="24.44" y="10" width="90" height="50" as="geometry" />
        </mxCell>
        <mxCell id="vfP2nqWJJjQrkhzP8G_h-16" value="" style="group" vertex="1" connectable="0" parent="WIyWlLk6GJQsqaUBKTNV-1">
          <mxGeometry x="280" y="1040" width="200" height="100" as="geometry" />
        </mxCell>
        <mxCell id="vfP2nqWJJjQrkhzP8G_h-9" value="Logs/ Task History/&amp;nbsp;&lt;div&gt;AI Responses/ Etc.&lt;/div&gt;" style="shape=parallelogram;perimeter=parallelogramPerimeter;whiteSpace=wrap;html=1;fixedSize=1;" vertex="1" parent="vfP2nqWJJjQrkhzP8G_h-16">
          <mxGeometry width="200" height="100" as="geometry" />
        </mxCell>
        <mxCell id="vfP2nqWJJjQrkhzP8G_h-10" value="Data Flow" style="text;html=1;align=center;verticalAlign=middle;resizable=0;points=[];autosize=1;strokeColor=none;fillColor=none;fontSize=16;" vertex="1" parent="vfP2nqWJJjQrkhzP8G_h-16">
          <mxGeometry x="49.99666666666667" width="100" height="30" as="geometry" />
        </mxCell>
        <mxCell id="vfP2nqWJJjQrkhzP8G_h-17" value="" style="group" vertex="1" connectable="0" parent="WIyWlLk6GJQsqaUBKTNV-1">
          <mxGeometry x="310" y="1400" width="170" height="140" as="geometry" />
        </mxCell>
        <mxCell id="vfP2nqWJJjQrkhzP8G_h-11" value="User Response/&amp;nbsp;&lt;div&gt;Notifications/&amp;nbsp;&lt;/div&gt;&lt;div&gt;Reports/ Etc.&lt;/div&gt;" style="ellipse;whiteSpace=wrap;html=1;aspect=fixed;" vertex="1" parent="vfP2nqWJJjQrkhzP8G_h-17">
          <mxGeometry x="9.444444444444445" width="140" height="140" as="geometry" />
        </mxCell>
        <mxCell id="vfP2nqWJJjQrkhzP8G_h-12" value="Output &amp;amp;&lt;div&gt;Actions&lt;/div&gt;" style="text;html=1;align=center;verticalAlign=middle;resizable=0;points=[];autosize=1;strokeColor=none;fillColor=none;fontSize=16;" vertex="1" parent="vfP2nqWJJjQrkhzP8G_h-17">
          <mxGeometry x="34" width="90" height="50" as="geometry" />
        </mxCell>
        <mxCell id="vfP2nqWJJjQrkhzP8G_h-1" value="&amp;nbsp; &amp;nbsp; &amp;nbsp; &amp;nbsp; &amp;nbsp; &amp;nbsp; &amp;nbsp; &amp;nbsp;User Input&lt;div&gt;&lt;br&gt;&lt;/div&gt;" style="text;html=1;align=center;verticalAlign=middle;resizable=0;points=[];autosize=1;strokeColor=none;fillColor=none;fontSize=16;" vertex="1" parent="WIyWlLk6GJQsqaUBKTNV-1">
          <mxGeometry x="270" y="-108.33333333333333" width="160" height="50" as="geometry" />
        </mxCell>
        <mxCell id="vfP2nqWJJjQrkhzP8G_h-22" value="" style="edgeStyle=none;curved=1;rounded=0;orthogonalLoop=1;jettySize=auto;html=1;fontSize=12;startSize=8;endSize=8;" edge="1" parent="WIyWlLk6GJQsqaUBKTNV-1" source="vfP2nqWJJjQrkhzP8G_h-0">
          <mxGeometry relative="1" as="geometry">
            <mxPoint x="380" y="100" as="targetPoint" />
          </mxGeometry>
        </mxCell>
        <mxCell id="vfP2nqWJJjQrkhzP8G_h-24" value="" style="edgeStyle=none;curved=1;rounded=0;orthogonalLoop=1;jettySize=auto;html=1;fontSize=12;startSize=8;endSize=8;" edge="1" parent="WIyWlLk6GJQsqaUBKTNV-1" source="vfP2nqWJJjQrkhzP8G_h-5">
          <mxGeometry relative="1" as="geometry">
            <mxPoint x="390" y="420" as="targetPoint" />
          </mxGeometry>
        </mxCell>
        <mxCell id="vfP2nqWJJjQrkhzP8G_h-25" value="" style="edgeStyle=none;curved=1;rounded=0;orthogonalLoop=1;jettySize=auto;html=1;fontSize=12;startSize=8;endSize=8;" edge="1" parent="WIyWlLk6GJQsqaUBKTNV-1" source="vfP2nqWJJjQrkhzP8G_h-7">
          <mxGeometry relative="1" as="geometry">
            <mxPoint x="389" y="860" as="targetPoint" />
          </mxGeometry>
        </mxCell>
        <mxCell id="vfP2nqWJJjQrkhzP8G_h-26" value="" style="edgeStyle=none;curved=1;rounded=0;orthogonalLoop=1;jettySize=auto;html=1;fontSize=12;startSize=8;endSize=8;" edge="1" parent="WIyWlLk6GJQsqaUBKTNV-1" source="vfP2nqWJJjQrkhzP8G_h-9">
          <mxGeometry relative="1" as="geometry">
            <mxPoint x="384" y="1260" as="targetPoint" />
          </mxGeometry>
        </mxCell>
        <mxCell id="vfP2nqWJJjQrkhzP8G_h-37" value="" style="group" vertex="1" connectable="0" parent="WIyWlLk6GJQsqaUBKTNV-1">
          <mxGeometry x="320" y="590" width="140" height="730" as="geometry" />
        </mxCell>
        <mxCell id="vfP2nqWJJjQrkhzP8G_h-30" value="Sends confirmation &amp;amp; Feedback" style="rounded=1;whiteSpace=wrap;html=1;" vertex="1" parent="vfP2nqWJJjQrkhzP8G_h-37">
          <mxGeometry y="673.1168831168832" width="140" height="56.883116883116884" as="geometry" />
        </mxCell>
        <mxCell id="vfP2nqWJJjQrkhzP8G_h-28" value="Receives Command/ Request" style="rounded=1;whiteSpace=wrap;html=1;" vertex="1" parent="WIyWlLk6GJQsqaUBKTNV-1">
          <mxGeometry x="320" y="100" width="140" height="56.883116883116884" as="geometry" />
        </mxCell>
        <mxCell id="vfP2nqWJJjQrkhzP8G_h-34" style="edgeStyle=none;curved=1;rounded=0;orthogonalLoop=1;jettySize=auto;html=1;fontSize=12;startSize=8;endSize=8;" edge="1" parent="WIyWlLk6GJQsqaUBKTNV-1">
          <mxGeometry relative="1" as="geometry">
            <mxPoint x="380" y="160" as="sourcePoint" />
            <mxPoint x="380" y="240" as="targetPoint" />
          </mxGeometry>
        </mxCell>
        <mxCell id="vfP2nqWJJjQrkhzP8G_h-27" value="Processes request and selects action" style="rounded=1;whiteSpace=wrap;html=1;" vertex="1" parent="WIyWlLk6GJQsqaUBKTNV-1">
          <mxGeometry x="320" y="416.56142857142856" width="140" height="56.883116883116884" as="geometry" />
        </mxCell>
        <mxCell id="vfP2nqWJJjQrkhzP8G_h-35" style="edgeStyle=none;curved=1;rounded=0;orthogonalLoop=1;jettySize=auto;html=1;fontSize=12;startSize=8;endSize=8;" edge="1" parent="WIyWlLk6GJQsqaUBKTNV-1">
          <mxGeometry relative="1" as="geometry">
            <mxPoint x="390" y="470.0004791759968" as="sourcePoint" />
            <mxPoint x="390" y="570" as="targetPoint" />
          </mxGeometry>
        </mxCell>
        <mxCell id="vfP2nqWJJjQrkhzP8G_h-29" value="Stores logs, history, and insights" style="rounded=1;whiteSpace=wrap;html=1;" vertex="1" parent="WIyWlLk6GJQsqaUBKTNV-1">
          <mxGeometry x="330" y="859.9954545454545" width="140" height="56.883116883116884" as="geometry" />
        </mxCell>
        <mxCell id="vfP2nqWJJjQrkhzP8G_h-36" style="edgeStyle=none;curved=1;rounded=0;orthogonalLoop=1;jettySize=auto;html=1;fontSize=12;startSize=8;endSize=8;entryX=0.727;entryY=0.056;entryDx=0;entryDy=0;entryPerimeter=0;" edge="1" parent="WIyWlLk6GJQsqaUBKTNV-1" source="vfP2nqWJJjQrkhzP8G_h-29" target="vfP2nqWJJjQrkhzP8G_h-10">
          <mxGeometry relative="1" as="geometry" />
        </mxCell>
        <mxCell id="vfP2nqWJJjQrkhzP8G_h-51" style="edgeStyle=none;curved=1;rounded=0;orthogonalLoop=1;jettySize=auto;html=1;entryX=0.574;entryY=0.073;entryDx=0;entryDy=0;entryPerimeter=0;fontSize=12;startSize=8;endSize=8;" edge="1" parent="WIyWlLk6GJQsqaUBKTNV-1" source="vfP2nqWJJjQrkhzP8G_h-30" target="vfP2nqWJJjQrkhzP8G_h-12">
          <mxGeometry relative="1" as="geometry" />
        </mxCell>
      </root>
    </mxGraphModel>
  </diagram>
</mxfile>
